<?xml version="1.0" encoding="UTF-8"?>
<svg version="1.1" xmlns="http://www.w3.org/2000/svg" width="827" height="620">
<path d="M0 0 C272.91 0 545.82 0 827 0 C827 204.6 827 409.2 827 620 C554.09 620 281.18 620 0 620 C0 415.4 0 210.8 0 0 Z " fill="#F7F6F3" transform="translate(0,0)"/>
<path d="M0 0 C6.50484011 5.02043318 10.02495857 11.41605986 11.33203125 19.515625 C11.76538396 28.2282953 9.48665454 36.27549168 3.80078125 42.98828125 C-4.45887138 50.80494213 -11.50931327 51.89259144 -22.55859375 51.9609375 C-26.14453125 51.5625 -26.14453125 51.5625 -32.14453125 48.5625 C-32.14453125 56.1525 -32.14453125 63.7425 -32.14453125 71.5625 C-37.09453125 69.9125 -42.04453125 68.2625 -47.14453125 66.5625 C-47.29388583 59.66155252 -47.40222328 52.7615649 -47.47412109 45.859375 C-47.50412161 43.51610912 -47.54493616 41.17295389 -47.59716797 38.83007812 C-48.17517237 12.21920898 -48.17517237 12.21920898 -39.10473633 2.34106445 C-28.04669379 -8.38692973 -12.4915728 -8.37322184 0 0 Z " fill="#6CB6B0" transform="translate(429.14453125,288.4375)"/>
<path d="M0 0 C17.16 0 34.32 0 52 0 C52 5.28 52 10.56 52 16 C40.45 16 28.9 16 17 16 C17 21.28 17 26.56 17 32 C28.55 32 40.1 32 52 32 C52 37.28 52 42.56 52 48 C40.45 48 28.9 48 17 48 C17 53.28 17 58.56 17 64 C28.55 64 40.1 64 52 64 C52 69.28 52 74.56 52 80 C34.84 80 17.68 80 0 80 C0 53.6 0 27.2 0 0 Z " fill="#6DCDC6" transform="translate(215,260)"/>
<path d="M0 0 C8.66036895 4.34966057 13.53626326 11.17938764 16.60546875 20.30859375 C18.07631477 29.25812608 16.15191837 37.11910544 11.0625 44.56640625 C6.47099324 50.26113546 1.45029193 53.02698602 -5.39453125 55.30859375 C-16.3615307 56.16847417 -23.89417371 54.96081724 -32.64453125 48.30859375 C-38.91610521 42.42585737 -41.62190692 34.59649619 -41.95703125 26.12109375 C-41.54203422 17.74470624 -38.27003066 11.262152 -32.5703125 5.171875 C-22.44450892 -3.49959413 -12.11328547 -4.93757334 0 0 Z " fill="#6BBDB8" transform="translate(360.39453125,284.69140625)"/>
<path d="M0 0 C6.76236033 5.53704376 11.21328759 11.34131677 13 20 C13 23.96 13 27.92 13 32 C-0.2 32 -13.4 32 -27 32 C-22.47909301 36.61052365 -22.47909301 36.61052365 -16.6875 37.25 C-12.55685599 37.23676076 -10.49844595 36.19902317 -7 34 C-3.71824843 35.18601289 -1.64308962 37.13986847 0.75 39.625 C1.36359375 40.25664062 1.9771875 40.88828125 2.609375 41.5390625 C3.29773438 42.26222656 3.29773438 42.26222656 4 43 C2.14977965 47.17172323 -0.02349984 48.70586529 -4 51 C-11.35128725 53.83055105 -18.7557806 54.4113913 -26.30078125 51.90234375 C-34.61408348 48.02004196 -39.52895085 43.60139903 -43.375 35.3125 C-46.33183873 27.03084577 -46.16163441 19.70107695 -42.5 11.6875 C-38.79806597 5.03272918 -33.51733405 -0.87165687 -26.16796875 -3.5625 C-17.22997147 -5.36620396 -7.84372878 -4.88024026 0 0 Z " fill="#719B97" transform="translate(599,287)"/>
<path d="M0 0 C8.81328782 5.25236345 8.81328782 5.25236345 10.3125 9.75 C4.8675 13.71 4.8675 13.71 -0.6875 17.75 C-2.77083333 16.70833333 -4.85416667 15.66666667 -6.9375 14.625 C-10.5750205 13.46760711 -13.93452541 13.14776142 -17.6875 13.75 C-20.79102458 15.35923497 -22.90451424 16.75347267 -25.0625 19.5 C-26.41570971 24.37155497 -26.17523621 28.38947267 -24.5 33.0625 C-22.41097034 36.16002674 -21.15586902 37.36265239 -17.6875 38.75 C-11.88220523 39.30288522 -8.82328838 38.66806158 -3.6875 35.75 C-1.84375 34.9375 -1.84375 34.9375 0.3125 34.75 C2.890625 36.18359375 2.890625 36.18359375 5.5625 38.1875 C6.45453125 38.84621094 7.3465625 39.50492187 8.265625 40.18359375 C8.94109375 40.70050781 9.6165625 41.21742188 10.3125 41.75 C9.00309675 45.87427012 7.65550587 47.64589716 4 49.9375 C3.24074219 50.42605469 2.48148438 50.91460937 1.69921875 51.41796875 C-5.85097111 55.63174083 -13.27001333 55.54770851 -21.6875 54.75 C-25.23922058 53.64039692 -27.81367501 52.08943605 -30.6875 49.75 C-31.65429688 48.98816406 -31.65429688 48.98816406 -32.640625 48.2109375 C-38.50013635 43.01616063 -41.16192394 37.0686486 -42.1015625 29.34765625 C-42.47785084 20.22761512 -40.74779372 13.86478747 -35.078125 6.72265625 C-26.01685349 -3.10757637 -12.28338634 -5.94832652 0 0 Z " fill="#6FA19D" transform="translate(544.6875,285.25)"/>
<path d="M0 0 C5.61 0 11.22 0 17 0 C20.96 10.23 24.92 20.46 29 31 C32.33540185 22.99503555 35.58576299 14.99937809 38.66796875 6.90039062 C40.89510012 1.10489988 40.89510012 1.10489988 42 0 C44.69654854 -0.07319621 47.36691458 -0.09242537 50.0625 -0.0625 C50.82111328 -0.05798828 51.57972656 -0.05347656 52.36132812 -0.04882812 C54.24091871 -0.0370068 56.12046899 -0.01907078 58 0 C57.30057914 4.62398043 55.60548748 8.76006755 53.83203125 13.0546875 C53.51473557 13.83329132 53.19743988 14.61189514 52.87052917 15.41409302 C51.85533981 17.90278306 50.83411205 20.38894052 49.8125 22.875 C49.14476335 24.50764122 48.47744182 26.14045228 47.81054688 27.7734375 C46.82539109 30.18567452 45.83996915 32.59779683 44.85281372 35.00921631 C41.86037058 42.32302862 38.92097357 49.65736919 36 57 C31.71 57 27.42 57 23 57 C18.56942933 47.63677254 14.55365142 38.18342353 10.73071289 28.56005859 C9.80749006 26.2373959 8.87775612 23.91741565 7.94726562 21.59765625 C5.09345219 14.45725532 2.30457757 7.34112711 0 0 Z " fill="#69C4BD" transform="translate(265,283)"/>
<path d="M0 0 C0 4.95 0 9.9 0 15 C-2.0728125 15.61875 -2.0728125 15.61875 -4.1875 16.25 C-9.36290509 17.99680078 -12.7407907 19.88409821 -15.60083008 24.68994141 C-17.16867763 28.39904577 -17.42594159 31.1340662 -17.51171875 35.1484375 C-17.52966995 35.80582916 -17.54762115 36.46322083 -17.56611633 37.14053345 C-17.61984437 39.21862572 -17.65399125 41.29649347 -17.6875 43.375 C-17.72070653 44.79299976 -17.75519924 46.21097001 -17.79101562 47.62890625 C-17.87794746 51.08596299 -17.93832655 54.54203353 -18 58 C-22.95 58 -27.9 58 -33 58 C-33.13910899 53.51759921 -33.25807014 49.04291336 -33.32958984 44.56005859 C-33.35944607 43.04124352 -33.40014835 41.52259596 -33.45263672 40.00439453 C-33.88746273 27.08750412 -31.600689 18.15111638 -23 8 C-15.6926922 2.11429572 -9.328322 -0.32166628 0 0 Z " fill="#6CAEA9" transform="translate(478,282)"/>
<path d="M0 0 C0 19.47 0 38.94 0 59 C-5.28 59 -10.56 59 -16 59 C-16 41.18 -16 23.36 -16 5 C-2.66666667 0 -2.66666667 0 0 0 Z " fill="#72AAA5" transform="translate(497,281)"/>
<path d="M0 0 C3.81883489 1.77303048 5.49439614 3.29867851 7.9375 6.6875 C9.35064983 11.0932024 9.30955881 14.56337348 8 19 C5.91520839 22.65032285 3.11553344 25.8241333 -1 27 C-5.81665605 27.46612801 -8.01211413 27.52190197 -12.3125 25.25 C-16.29403709 21.91662011 -18.04840921 19.83028009 -18.9375 14.6875 C-19.35799859 9.58264717 -18.01995001 7.08101353 -15 3 C-10.51287745 -1.13823181 -5.80740473 -0.74907105 0 0 Z " fill="#F4F5F2" transform="translate(353,298)"/>
<path d="M0 0 C4.71362305 1.9901964 7.72172827 5.44345654 10 10 C10.55068562 15.72713048 9.56556975 18.51756945 6 23 C3.59655042 25.78800151 1.6896461 26.74131387 -2.015625 27.30859375 C-6.69735015 27.57869328 -9.35755729 27.21806602 -13 24.125 C-16.45487901 20.81407428 -17.21977609 18.5958283 -17.4375 13.8125 C-17.41655993 8.5007023 -16.20033382 5.97038536 -12.5078125 2.2421875 C-8.76576514 -0.84063908 -4.63481108 -0.44256009 0 0 Z " fill="#F5F6F3" transform="translate(415,298)"/>
<path d="M0 0 C5.27420407 0.03433727 7.93586386 0.75018571 11.8125 4.3125 C11.8125 4.9725 11.8125 5.6325 11.8125 6.3125 C4.2225 6.3125 -3.3675 6.3125 -11.1875 6.3125 C-5.00328947 0.12828947 -5.00328947 0.12828947 0 0 Z " fill="#F4F4F1" transform="translate(582.1875,297.6875)"/>
<path d="M0 0 C0.33 0 0.66 0 1 0 C1 2.64 1 5.28 1 8 C-1.97 8 -4.94 8 -8 8 C-6.68 7.34 -5.36 6.68 -4 6 C-1.61493584 3.96827868 -1.02322718 3.06968154 0 0 Z " fill="#EBEBEA" transform="translate(826,612)"/>
<path d="M0 0 C0.598125 0.763125 1.19625 1.52625 1.8125 2.3125 C3.46959332 4.3483575 5.10297674 6.1978279 7 8 C4.69 8 2.38 8 0 8 C0 5.36 0 2.72 0 0 Z " fill="#EBEAE9" transform="translate(0,612)"/>
<path d="M0 0 C2.31 0 4.62 0 7 0 C7 2.31 7 4.62 7 7 C5.83040013 6.02433888 4.66438823 5.044375 3.5 4.0625 C2.8503125 3.51722656 2.200625 2.97195312 1.53125 2.41015625 C1.0259375 1.94480469 0.520625 1.47945313 0 1 C0 0.67 0 0.34 0 0 Z " fill="#EAEAE9" transform="translate(820,0)"/>
<path d="M0 0 C2.31 0 4.62 0 7 0 C6.02433888 1.16959987 5.044375 2.33561177 4.0625 3.5 C3.51722656 4.1496875 2.97195312 4.799375 2.41015625 5.46875 C1.94480469 5.9740625 1.47945313 6.479375 1 7 C0.67 7 0.34 7 0 7 C0 4.69 0 2.38 0 0 Z " fill="#EAEAE9" transform="translate(0,0)"/>
</svg>
